/* XPM */
static char *RUE_[] = {
/* columns rows colors chars-per-pixel */
"32 32 190 2 ",
"   c #010101",
".  c #080705",
"X  c #0A0906",
"o  c #02040C",
"O  c #06090B",
"+  c #0D0C0A",
"@  c #100E0C",
"#  c #0F100F",
"$  c #14130E",
"%  c #19160F",
"&  c #000412",
"*  c #050A12",
"=  c #0E0D10",
"-  c #070D19",
";  c #0F1012",
":  c #151513",
">  c #181712",
",  c #161817",
"<  c #1C1A14",
"1  c #12141C",
"2  c #15181C",
"3  c #1D1D1A",
"4  c #211E17",
"5  c #211E1A",
"6  c #24221B",
"7  c #29261E",
"8  c #27281F",
"9  c #2C291E",
"0  c #070F20",
"q  c #161824",
"w  c #1A1D23",
"e  c #11192F",
"r  c #191E28",
"t  c #171E37",
"y  c #1F2125",
"u  c #1B212B",
"i  c #232424",
"p  c #292720",
"a  c #2C2B22",
"s  c #27272A",
"d  c #2B2C28",
"f  c #312E23",
"g  c #312F2A",
"h  c #2F302A",
"j  c #353125",
"k  c #383426",
"l  c #3C3827",
"z  c #35332B",
"x  c #3A352A",
"c  c #3D3A2C",
"v  c #212735",
"b  c #262E36",
"n  c #2E323B",
"m  c #2F3336",
"M  c #353531",
"N  c #383733",
"B  c #3E3B32",
"V  c #31353A",
"C  c #363A3D",
"Z  c #3A3B3D",
"A  c #423D2D",
"S  c #423E33",
"D  c #45402F",
"F  c #454233",
"G  c #4B4635",
"H  c #4C4937",
"J  c #44433A",
"K  c #4C463B",
"L  c #4E4B3B",
"P  c #524D3B",
"I  c #584F3A",
"U  c #56513E",
"Y  c #59523E",
"T  c #60573F",
"R  c #303947",
"E  c #3C4040",
"W  c #3D424B",
"Q  c #434443",
"!  c #4D4B42",
"~  c #474848",
"^  c #534F43",
"/  c #555243",
"(  c #5B5543",
")  c #5F5A45",
"_  c #54534B",
"`  c #5A564B",
"'  c #5D5A4A",
"]  c #4D4E53",
"[  c #4F5254",
"{  c #555858",
"}  c #545555",
"|  c #605741",
" . c #625B45",
".. c #635D4B",
"X. c #6A5F4B",
"o. c #645F55",
"O. c #66604A",
"+. c #6B634B",
"@. c #6D694E",
"#. c #71674D",
"$. c #756A4D",
"%. c #7A6C4F",
"&. c #656254",
"*. c #6D6752",
"=. c #6D6956",
"-. c #64635D",
";. c #6A675A",
":. c #6F6C5D",
">. c #746C53",
",. c #786E56",
"<. c #726C5A",
"1. c #786F5A",
"2. c #767054",
"3. c #7B7255",
"4. c #77705A",
"5. c #7B745B",
"6. c #7F785F",
"7. c #6D6F6A",
"8. c #726C61",
"9. c #777663",
"0. c #7A7564",
"q. c #7E7A67",
"w. c #7F7D6D",
"e. c #817657",
"r. c #81755A",
"t. c #847A5C",
"y. c #897D5D",
"u. c #837C63",
"i. c #8A7F64",
"p. c #837C6A",
"a. c #807E72",
"s. c #8A805D",
"d. c #90825F",
"f. c #878065",
"g. c #8C8364",
"h. c #8C846B",
"j. c #8E896C",
"k. c #918565",
"l. c #958A66",
"z. c #988A67",
"x. c #91876A",
"c. c #958C6B",
"v. c #9A8D6B",
"b. c #96916C",
"n. c #9C926E",
"m. c #8F8973",
"M. c #898574",
"N. c #948D72",
"B. c #998F71",
"V. c #958F7D",
"C. c #979072",
"Z. c #9C9273",
"A. c #9E9873",
"S. c #9C957C",
"D. c #9E987C",
"F. c #94907A",
"G. c #A4986E",
"H. c #A19673",
"J. c #A49A75",
"K. c #A29679",
"L. c #A49A7B",
"P. c #AA9F7F",
"I. c #A89C75",
"U. c #ABA37C",
"Y. c #ABA175",
"T. c #B1A67D",
"R. c #B2AA7D",
"E. c #B2A878",
"W. c #9A9883",
"Q. c #AA9F81",
"!. c #A49A80",
"~. c #ACA381",
"^. c #AFA884",
"/. c #A7A18C",
"(. c #ADA78E",
"). c #B1A583",
"_. c #B3A985",
"`. c #B4AA8A",
"'. c #BBAE8C",
"]. c #B8AC85",
"[. c #B7B08B",
"{. c #BCB38C",
"}. c #BEB193",
"|. c #C1B48E",
" X c #C1B493",
".X c #C5BA93",
"XX c #C4BC9D",
"oX c #CBC09C",
"OX c #D9CDA7",
"+X c #E0D5B0",
/* pixels */
"  X $   a .     : < < . + 7 N c 3 5 7 X @ O z 9 4 * O 6 7 4 < X ",
"  0.L F XX<   F J K =.` G L t.W.i A x ( r.u w.v.4.0.S +.e.,.( 6 ",
"c .XP ) _.S T y...u.J.u.j.B.H : 5.l.G P {.n q.Y.g.b.U < 6 8 3 > ",
"A v.d c  .k y.y.%.k.n.A.P.'.f.  Q.XXO.p ( 1 w.E.J.g.>.    B x   ",
"7 s y L <   @.U.A.J.l.r.0.L.' < S.L.U.3.@ i  XA.f._.~.$ 4.Q.A   ",
"1 q ;.4.j . J ;.C.g.3.D , c . 6 u.t.T.Z.4 Z Z.T.w./.7.p l.g.4   ",
"  d b.h.c : t R &.J U j Z <...< g i.A.).g.P k Y f._ n O i.'.B   ",
"  B d.g.2.D < * v 3 < 6.H.l.v._.n 5 ` x.P.G.( > z > <   5 Y r o ",
"  k g.,.%.k.O.  J u.^ V m.U.x.S.{ ; 9 S ..<.F Y m.j   ..F   i : ",
"a k  .g.g.'.h.: -.T.H.S & S._.0.7 G =.` +.k ) _.5.=.1 =.;.  + : ",
": 8 4 G u.2.l ( ( P.|.S . M x $ / u.b.%.y.r.6 [.c.O.< : < < j   ",
"> +   > +.~ i #.T ( 0.X u./   +.c.k.c.d.k. .> U >.. 6.{.5. .x.$ ",
"S ( N f.H.(.} D t.G 5 6 ( )   5.H.>.3.f.>.V - . 2 o ! 1.( A g.4 ",
"S <.~ f.n.h.C.k  .e.z.z.e...x j U a k H V r g f.V.7.'     J G   ",
"A 5.P J.I.^.^.< k L 3.g.y.v.).P  .f.z < p +.).`.T.v.r.6   : +   ",
"j B.6 Q n q h 3  .+ P r.y.z.c.I g.K.~.L } .XP.J.H.5.5.g ( h./ . ",
"j f.3 $ L % = B p k  .3.y.t.( < k b.OXK.V `.}.v.j.u.H P l.2.7 . ",
"j <.g O.'.i.L A.a 9 +.r.r.S <.H.K ; G ) $ 6 <.J.h.P L O.s. .D % ",
"f O.f >.k.Q.G z p 6 3 G G P Q.)...' =.      x +.7 S P k U.4.c < ",
"% k ( t.+.x.f X j.).S 2 O + ! ..w N.u.w n p 3.k.K @ A A f S z $ ",
"4 u.B.t.k.O.$ 6 S f.L.^ Q  .| u.b z l I.W.:.a *.` P Z.Z.8 o.J.< ",
"< 8.f.r. .j F c.,.O <.#.t.c.x.z.V 6 f.b.x.^.O.4 :  .I.k.6 < K.3 ",
"+ 8 < Y G 8 ,.l...  < a k m E U . u 0.c.R.S.:.0 C  .}. Xc 8 x . ",
"F i.k h.B.x O.z.<.: G !.^   8 D k 3  .H.8.o 1 -.i.I S.).g ' U # ",
"K K.D Z.Q.D 5 c u   k ..x F +.3.r.s.( d r c a k.k.( G I   &.~.< ",
"A >.  ,.+XO.  6 ;.[ $   Y A.c.e.y.y.u.B S `.O.` q.c.( &   < Z.9 ",
"+ 1 = % J.z N x.U.F./ 6 t.).$.#.t.g.H.m.g Z.I & ] d.>.Q s * M : ",
"= W p. .7   Q c.G.].h.9 i. Xk.5.5.3.p.N.' : @ *.g ^ X.$.x.K.@.. ",
"9 y.f.g.b.( d x.0._ K . +.S.5.Y c c P Y ..+ < B.'.7 S <.p.b.U.3 ",
"j J.A.b.E.XXt 2 i / ! + k A c 4 X $ 4 D 7 > X.f ` 4   i # 6 P : ",
"g U.U.Z.M.M._ 3 3.].Y L ,.4.O.x     $ 4   + #.e.f f $.y.z.I.B.> ",
"  z F a a p : + g a X 7 a a x A . O 7 p $   X f f j x f f f k X "
};
