/* XPM */
static char *_9466deb3dc24a16bb3946c9c3d0c2c4CP5F7vDorsQnRNnc[] = {
/* columns rows colors chars-per-pixel */
"32 32 151 2 ",
"   c #3B3E41",
".  c #3F4144",
"X  c #464847",
"o  c #464948",
"O  c #4E514B",
"+  c #52534F",
"@  c #555651",
"#  c #575851",
"$  c #5C5D54",
"%  c #5E5E59",
"&  c #5F6056",
"*  c #616256",
"=  c #64655A",
"-  c #6A6A5C",
";  c #70725D",
":  c #6D6B61",
">  c #706F60",
",  c #747362",
"<  c #787763",
"1  c #7A7A65",
"2  c #777568",
"3  c #787769",
"4  c #7D7C69",
"5  c #817E6A",
"6  c #818266",
"7  c #84836B",
"8  c #88866D",
"9  c #878869",
"0  c #8A8A6B",
"q  c #868472",
"w  c #8D8B73",
"e  c #8F8C78",
"r  c #908E74",
"t  c #918E79",
"y  c #939274",
"u  c #989775",
"i  c #9A9977",
"p  c #95937A",
"a  c #99967B",
"s  c #9D9A7B",
"d  c #A19E7E",
"f  c #A1A07E",
"g  c #969480",
"h  c #989681",
"j  c #9D9B82",
"k  c #A19E83",
"l  c #A5A283",
"z  c #A9A585",
"x  c #ACAA85",
"c  c #A7A389",
"v  c #AAA68A",
"b  c #AEAA8A",
"n  c #B2AD8C",
"m  c #B4B18B",
"M  c #B9B48D",
"N  c #BDB88F",
"B  c #B2AD91",
"V  c #B6B193",
"C  c #BBB693",
"Z  c #BEB995",
"A  c #BEB999",
"S  c #C1BC95",
"D  c #C3BD9B",
"F  c #CAC397",
"G  c #C6C19B",
"H  c #CAC49D",
"J  c #D5CD9E",
"K  c #C7C1A0",
"L  c #CBC6A2",
"P  c #CFC9A4",
"I  c #D2CCA6",
"U  c #D3CDA8",
"Y  c #D3CDA9",
"T  c #D2CCA8",
"R  c #D4CDA9",
"E  c #D4CEA8",
"W  c #D5CFA8",
"Q  c #D4CEA9",
"!  c #D5CEA9",
"~  c #D5CFA9",
"^  c #D4CEAA",
"/  c #D5CFAA",
"(  c #D4CEA9",
")  c #D6D0A7",
"_  c #D7D0A6",
"`  c #DCD3A6",
"'  c #DED6A7",
"]  c #DAD2A3",
"[  c #D6D0A8",
"{  c #D7D0A9",
"}  c #D6D0AA",
"|  c #D6D0AB",
" . c #D7D0AB",
".. c #D7D1AB",
"X. c #D7D0AA",
"o. c #D8D1A8",
"O. c #D8D2A9",
"+. c #D9D2A9",
"@. c #DAD2A8",
"#. c #D8D1AA",
"$. c #D8D1AB",
"%. c #D8D2AB",
"&. c #D9D2AB",
"*. c #DBD4A8",
"=. c #DBD4AA",
"-. c #DAD4AB",
";. c #DBD4AB",
":. c #DCD4A8",
">. c #DCD5A8",
",. c #DED6A8",
"<. c #DDD5AA",
"1. c #D8D2AC",
"2. c #D9D2AC",
"3. c #D9D3AC",
"4. c #DAD3AC",
"5. c #DAD3AD",
"6. c #DAD4AC",
"7. c #DBD4AC",
"8. c #DBD4AD",
"9. c #DBD5AD",
"0. c #DCD5AD",
"q. c #DDD6AC",
"w. c #DCD6AD",
"e. c #DCD6AE",
"r. c #DDD6AE",
"t. c #DBD4AC",
"y. c #DFD8AD",
"u. c #DDD6B0",
"i. c #E0D7A6",
"p. c #E3DBAB",
"a. c #E5DBAA",
"s. c #E1DAAD",
"d. c #E0D9AE",
"f. c #E2DAAE",
"g. c #E2DBAF",
"h. c #E3DBAF",
"j. c #E2DBAE",
"k. c #E8DFAD",
"l. c #E0D9B0",
"z. c #E0D9B1",
"x. c #E2DBB0",
"c. c #E7DFB1",
"v. c #E2DBB1",
"b. c #EBE2AF",
"n. c #E9E1B3",
"m. c #EBE2B2",
"M. c #ECE3B2",
"N. c #EBE3B2",
"B. c #F0E6B3",
"V. c #F0E7B1",
"C. c #F8EEB7",
/* pixels */
"I I I 8.s D | P 0.b C s.I %.I s * = C a.^ I I I I I ^ D z %.I I ",
"T I P 8.j B 5.I | n H ^ I I T x.l B 0.I ] %.%.I I I %.C b 8.I I ",
"I I T 5.V k 5.P | b L T I I I T H K ^ I I I I ) I I %.f l 8.I I ",
"^ P H T A w u.T [ v I T I T I %.D D ^ I I I I I I ^ I r v 5.P I ",
"G S L 5.M - l H S j [ I I I I ' l m 0.%.%.^ ^ I [ I S 6 v x.T ^ ",
"s x l u 9 # - y ; q [ T I I %.I - & p z C Z G G x s 0 X = m x m ",
"; y s b S I >.>.z : H [ 5.L l 8 r V F = $ p 7 * # 5 4 2 1 8 < $ ",
"n y.0.0.%.T T I m.8 9 d y y d D p.>.m.n M m.*.v q n.0.x.s.>.a.a ",
"h | P I I I I I 1.B   r N ` s.^ P P ^ L Z [ T L l %.P P P I ^ >.",
"h T T T I I I I ^ D h B.9.T I I T I ' >.n I T L n ) I I T T I I ",
"j K T I I I I I R L c U P I I I T I P ^ C D [ P n [ I I I T T I ",
"c A 8.T I R ^ ^  .d.l P ^ I I I ^ T P ^ D k 8.H k I I I I I T I ",
"k p G H ) P H S B b * q H _ %.^ P L L I l # l y q 1.P T T I T I ",
"h $ 1 , * w f l z d r 5 3 1 4 7 0 u y 4 @ m J < & r.P I I I I I ",
"v ] >.] , H h.0.s.h.m.b.` % 5 F I I [ D s B.y.r.3 K 8.[ 8.| [ | ",
"k 8.[ m.S D ^ P I P P U >.l >.0.I T ^ H J [ P r.b 8 n x b b n b ",
"v %.I %.D A ^ I I I I I P v I P I I ^ S I I I I I # 5 d i s p * ",
"D ^ I %.D A [ I I I I ^ G k 0.%.%.>.S V -.I I ^ L r b.h.p.>.c.n ",
"I I T ^ G V 5.I T I I 5.V $ l z l w 7 I ^ I I I I s I I P P %.t ",
"I I T ^ D v [ P I I P u.q 7 C M M z w ^ I I I I 5.k G I I R P 7 ",
"T I I ^ G p [ I I I ^ A 6 c.0.0.0.n.Z K I I I I | n Z [ P 1.B q ",
"I 5.[ P m < L I ^ I I 6 b 8.P I P 1.b V z.^ [ ^ 5.x v x.1.l.u t ",
"u l 8 ; - + r d s y , * P T I I I 5.B , b z x S M 9 = k l d # = ",
"$ = m S F ] ] ] I J n 1 N I ^ ] ^ u.z , M x 8 # * 4 p k z k l k ",
"n l C.*.*. . . .%.-.M.0 5 i f z l z 1 c M.0.b.: n m.s.8.0.s.y.u.",
"I l  .P R I U U I ^ ) d F F D F N z = t 0.L 0.n I T P I I P P I ",
"_ l U U I I U I T T P n b.>.5.%.8.0.>.l T I [ Z G ^ I ^ I T I I ",
"*.k D  .I I I I I T P k ) I I I I P [ z K ^ ^ A S 5.I I I I I T ",
"d.r r 0.U ^ ^ ^ ^ ^ T l T T I T I I 5.j n >.8.n p %.%.0.0.y.0.s.",
"5 O   i F D L L L P D e 8.T I I I I [ b $ s l < + 6 s a p a p w ",
"n n n > X 1 a a s 6 X + l G [ [ ) P D y p D H D L S D v = V n m ",
"0.>.h.*.& D d._ b.N 3 J M s s Z G M u n c.5.^ ^ ^ ^ 5.P d x.5.0."
};
