/* XPM */
static char *Tk8_[] = {
/* columns rows colors chars-per-pixel */
"32 32 153 2 ",
"   c #020202",
".  c #090706",
"X  c #0A0807",
"o  c #02070B",
"O  c #05090C",
"+  c #0C0B0B",
"@  c #100E0E",
"#  c #0F100F",
"$  c #13100E",
"%  c #090D10",
"&  c #0C1113",
"*  c #0D161B",
"=  c #141413",
"-  c #191614",
";  c #171817",
":  c #1A1917",
">  c #14171A",
",  c #16191A",
"<  c #1D1C1A",
"1  c #211E1C",
"2  c #24211E",
"3  c #1A1D21",
"4  c #1D2225",
"5  c #1B2328",
"6  c #1E2830",
"7  c #252422",
"8  c #292522",
"9  c #2D2925",
"0  c #272729",
"q  c #272828",
"w  c #2D2B29",
"e  c #302B27",
"r  c #322E2A",
"t  c #35312D",
"y  c #39342E",
"u  c #252C30",
"i  c #2C3235",
"p  c #333434",
"a  c #3B3632",
"s  c #3E3935",
"d  c #323639",
"f  c #37393A",
"g  c #3B3B3B",
"h  c #413B36",
"j  c #423D39",
"k  c #3D403F",
"l  c #45413C",
"z  c #4A433D",
"x  c #363E42",
"c  c #454443",
"v  c #4B4641",
"b  c #4E4943",
"n  c #424648",
"m  c #4E4C4A",
"M  c #524B45",
"N  c #594F47",
"B  c #544E49",
"V  c #56514C",
"C  c #5B534C",
"Z  c #4E5051",
"A  c #545452",
"S  c #5B5651",
"D  c #5E5852",
"F  c #565858",
"G  c #60574F",
"H  c #605750",
"J  c #645A53",
"K  c #6A5E55",
"L  c #615D59",
"P  c #6D6157",
"I  c #66625D",
"U  c #6C635C",
"Y  c #71665D",
"T  c #75695F",
"R  c #646260",
"E  c #6C6661",
"W  c #6E6865",
"Q  c #6C6D6A",
"!  c #716760",
"~  c #746B63",
"^  c #7A6D64",
"/  c #766F68",
"(  c #7D7066",
")  c #75706B",
"_  c #7C736B",
"`  c #7B7772",
"'  c #7D7975",
"]  c #807267",
"[  c #82766C",
"{  c #84796E",
"}  c #8A7C6E",
"|  c #807771",
" . c #857B72",
".. c #8B7D73",
"X. c #817D78",
"o. c #8D8275",
"O. c #878079",
"+. c #8E8379",
"@. c #918276",
"#. c #92867B",
"$. c #978A7E",
"%. c #958A7D",
"&. c #95897E",
"*. c #98887C",
"=. c #998A7D",
"-. c #8F8881",
";. c #908983",
":. c #948980",
">. c #948D85",
",. c #968C82",
"<. c #9A8C80",
"1. c #9C8E81",
"2. c #9B8E84",
"3. c #9A8D82",
"4. c #9F9081",
"5. c #9D9085",
"6. c #9E9286",
"7. c #959088",
"8. c #9F9388",
"9. c #9F958B",
"0. c #9E9288",
"q. c #A39585",
"w. c #A59686",
"e. c #A19388",
"r. c #A19489",
"t. c #A29489",
"y. c #A3978A",
"u. c #A49788",
"i. c #A59788",
"p. c #A2958A",
"a. c #A79A8A",
"s. c #A69A8E",
"d. c #A79A8E",
"f. c #A6998D",
"g. c #A19992",
"h. c #A69E95",
"j. c #A99C90",
"k. c #AB9E92",
"l. c #AEA094",
"z. c #AEA296",
"x. c #B0A295",
"c. c #B2A497",
"v. c #B0A397",
"b. c #B3A799",
"n. c #B4A59B",
"m. c #B9AB9D",
"M. c #B8AB9F",
"N. c #B9ACA0",
"B. c #BDB0A5",
"V. c #BAB0A6",
"C. c #C0B2A7",
"Z. c #CDBFB2",
"A. c #D5C7BB",
/* pixels */
"  . $ . 8 .     = < - . + 7 a a < 1 7 + @ + w 8 < % + < 2 1 - X ",
"  ) z h B.:   h j c I B z z ( ;.7 s a M ^ 4 ' @.! / s J ^ Y B 2 ",
"y m.b C d.h N ^ J _ =._  .+.z = E ..h v x.d _ =.{ o.M : 1 2 < = ",
"a @.q y C y ] ( P } #.&.e.x.|   p.C.J 7 B > ' w.%.{ P     g t   ",
"7 0 7 v -   J a.&.<.o.^ ^ 1.C : #.6.w.! + 7 b.&.' a.p.$ ! e.a   ",
"> 3 I U r . l I +.| Y s , p . 2 _ ( w.#.< g ,.i._ g.Q 7 o.{ :   ",
"  q o. .a = 5 x D l b w g E C < w [ &.f.[ z y M _ A d . [ k.s   ",
"  s [ [ U s < & u 2 : ~ *...+.j.d 4 C  .p.#.N = t - <   1 M 4 O ",
". r { Y P { J   l _ b d ..p...;.F & 8 j S U j M O.9   S s   7 > ",
"7 t C [ { c. .= L p.#.j o ,.j./ 8 l K C J r C j.~ U > I U   + $ ",
"= 7 : l _ U t V B 6.n.j . p y @ M ) @.P ] ^ 2 z.o.S : - < : e   ",
"- +   - S m 7 P N B / + _ M   J ......{ { C = M U . ( z.T C ..$ ",
"h B a | &.h.V s ^ z 1 2 B C   ~ &.P Y [ P f & X 3   b U B s [ : ",
"h E n [ #. .+.t C T ..} T C y r M 9 t l d 5 9 _ -.Q V     j l   ",
"a ~ b <.4.y.s.< t z T [ [ @.f.z C { t - 7 J f.k.f.@.( 2   > +   ",
"r @.1 c d , w 3 C X v ^ ] ....M [ <.p.v F N.e.3.#.~ ~ w M  .M . ",
"e | < + z = @ a 8 r C Y ] ^ M : r o.A.&.f z.b.+. ._ z z o.U 2 X ",
"e E w J v.] v <.8 8 J ^ ^ h E :.c + j C $ 1 U <. .b z H ] C h $ ",
"w J e P ..e.j r 8 < < j j v 5.f.S S U       y J 7 h z t u.T a : ",
"= r B ] J  .9 O ..j.j : O @ b J < o._ 3 i 8 Y { z + s a 9 s y $ ",
"< _ #.^ } J @ 7 j  .3.m v C V _ i t t 6.7.E 8 P C b #.@.2 L =.< ",
": ! ` ^ G r h ..U O R K ^ o. ...f < [ o. .y.H , = C 2. .< , 4.< ",
"+ 1 - M j 2 U ..C   - 9 r d g M   7 ) o.u.6.E * f C b.M.a 2 t . ",
"j [ t  .+.y J ..E = z 5.M   7 s a , C ,.R o , R [ b ,.h.w S b + ",
"v <.h +.p.h < a 4   y S y s J Y ^ [ B 0 3 a 9  ...M z b   L p.: ",
"a K   ! A.J   1 E Z #   M %.o.^ ] ^ _ s s j.J A _ ..N o   - #.8 ",
"+ > $ - &.t a  .6.#.M 2 ( j.P J ^ [ <. .r -.b   Z [ U n q O a = ",
"$ n ` N 7   c ..#.l. .2 ] n...~ ^ ! | +.A - # K w M J K  .>.P . ",
"9 _ _ { o.V w o.) m v o J <.T B y a z M D @ - @.v.8 j U _ o.6.< ",
"e =.%.o.q.V.5 > 7 B b + r y t : X + 1 h 7 - J 9 B :   7 & 2 v = ",
"9 w.a.+. . .Z < Y k.B z ! ! J t     $ 1   + J ~ e 9 K ] ..2.*.- ",
"o t g w w 7 = + 9 9 . 7 9 8 t a . X 7 8 $   X e e r t e 9 e r . "
};
