/* XPM */
static char *U08_[] = {
/* columns rows colors chars-per-pixel */
"32 32 157 2 ",
"   c #020202",
".  c #0A0503",
"X  c #0C0906",
"o  c #060708",
"O  c #07080A",
"+  c #0B0B0C",
"@  c #130D0A",
"#  c #0F100F",
"$  c #1B120D",
"%  c #0D0F12",
"&  c #100F10",
"*  c #0F1112",
"=  c #131315",
"-  c #1A1614",
";  c #1B1816",
":  c #141619",
">  c #17191B",
",  c #1A1C1D",
"<  c #211E1B",
"1  c #281F18",
"2  c #26201D",
"3  c #28211E",
"4  c #30261E",
"5  c #1C1E21",
"6  c #1E2124",
"7  c #222325",
"8  c #282625",
"9  c #292927",
"0  c #222629",
"q  c #25292D",
"w  c #292B2E",
"e  c #302925",
"r  c #322B2A",
"t  c #37322F",
"y  c #272C30",
"u  c #2A2E32",
"i  c #2D3236",
"p  c #2E3439",
"a  c #343333",
"s  c #393533",
"d  c #3B3837",
"f  c #32363A",
"g  c #34393D",
"h  c #3C3A3A",
"j  c #423936",
"k  c #403C3D",
"l  c #363B41",
"z  c #3A3E43",
"x  c #3C4145",
"c  c #3D444A",
"v  c #3F4850",
"b  c #434445",
"n  c #484442",
"m  c #41464B",
"M  c #43494E",
"N  c #4A4B4E",
"B  c #51504E",
"V  c #454C52",
"C  c #494E53",
"Z  c #4A5156",
"A  c #475159",
"S  c #4C545B",
"D  c #4F595F",
"F  c #525355",
"G  c #585656",
"H  c #51565B",
"J  c #52595E",
"K  c #4F5860",
"L  c #535C64",
"P  c #585C61",
"I  c #5D6165",
"U  c #56626B",
"Y  c #5B646C",
"T  c #5C6770",
"R  c #5E6972",
"E  c #616364",
"W  c #61666B",
"Q  c #656B6E",
"!  c #6A6A6C",
"~  c #636C74",
"^  c #6A6F75",
"/  c #636F78",
"(  c #65727B",
")  c #6B747C",
"_  c #72757B",
"`  c #75797D",
"'  c #677580",
"]  c #6C7781",
"[  c #6D7A84",
"{  c #6E7C89",
"}  c #707781",
"|  c #727C85",
" . c #787C81",
".. c #727E89",
"X. c #798087",
"o. c #74818C",
"O. c #79848D",
"+. c #768591",
"@. c #7B8692",
"#. c #7B8895",
"$. c #7C8A95",
"%. c #7F8B95",
"&. c #7C8897",
"*. c #7E8B97",
"=. c #7C8993",
"-. c #7C8C98",
";. c #7D8B99",
":. c #80868E",
">. c #82898F",
",. c #848A90",
"<. c #808A94",
"1. c #858C94",
"2. c #828C96",
"3. c #888D95",
"4. c #808E9A",
"5. c #818F9C",
"6. c #828E9A",
"7. c #84919B",
"8. c #81909F",
"9. c #85929D",
"0. c #85919C",
"q. c #88949F",
"w. c #8B959F",
"e. c #88949E",
"r. c #8593A3",
"t. c #8695A5",
"y. c #8895A1",
"u. c #8996A1",
"i. c #8A96A3",
"p. c #8895A5",
"a. c #8896A4",
"s. c #8A97A7",
"d. c #8996A1",
"f. c #8998A2",
"g. c #8E9AA7",
"h. c #8E9BA6",
"j. c #8D9AA5",
"k. c #929AA1",
"l. c #959DA6",
"z. c #909DA9",
"x. c #929FAA",
"c. c #94A2AE",
"v. c #94A1AC",
"b. c #95A3B0",
"n. c #97A5B2",
"m. c #97A4B0",
"M. c #99A5B3",
"N. c #98A5B0",
"B. c #9BAAB4",
"V. c #9DABB9",
"C. c #9FADB8",
"Z. c #A0ADB9",
"A. c #A5B2BD",
"S. c #A6B0BA",
"D. c #A7B4C0",
"F. c #B2C1CD",
"G. c #BBC9D5",
/* pixels */
"  o =   0 o     * > > o O 0 d f > 5 6 + * O w q , @ + 5 6 5 : + ",
"  ( m l A.>   l x b I Z c c / >.7 g f V / 2 ` +.W ~ l L / T C 5 ",
"f V.m A g.l A ( L ) ;.) | O.c : ~ [ x c n.s ) 5.[ +.V > , 6 5 : ",
"f O.9 p S p ' ( T ..+.&.u.c.|   w.D.L 0 C - _ r.$.] P     g i   ",
"7 7 8 m >   L a.$.5.o.( ( 7.S > <.0.u.~ + 7 M.$.} a.q.= ~ w.f   ",
"- < I T u o x I O.[ W l : a o 6 ) / a.+.5 h %.t._ k.! 7 o.[ >   ",
"  9 +.| f = 1 j J k m u d W S , u ] $.g.[ c i V ) F s o ] c.g   ",
"  g ] ] Y l , @ e 7 : ~ -...O.z.s < Z ..f.#.S = i = >   6 V 2 . ",
"o u ..T U ..L   x ) M s X.y.| 2.G * 0 z S W z V X.y   H l   7 = ",
"7 u S ] [ M.| = P f.@.x X 2.h.^ 6 x I S L u Z z.~ I - I I   + = ",
"= 0 > z ) Y p A V e.B.z o a p * V ) +.U [ / 5 c.o.K > : > > y   ",
": +   : H N 8 L A C ^ O ) M   L o.o.o.[ { S : V Y O / n.~ S | = ",
"l Z d ] $.l.F l ( c 5 6 V S   ~ #.Y R [ U s @ o ;   N T A g ] > ",
"g W b ] @.| @.u S R o.{ R K p u M q u x s 3 q [ >.! Z     x x   ",
"g ~ m 6.5.j.j., p c R [ [ +.h.v S [ i : 7 P g.v.g.+.( 6   : +   ",
"u +.5 b s - w , D O m / ' o.o.v [ 7.f.c F Z.q.6.#.~ ~ w C | M o ",
"u [ , + c : * g 0 i S R ) ( V > u o.F.6.d x.B.+. .) x V { T 5 o ",
"q W w K B.' x *.7 q K ( ( g T %.b + x Z * , Y 6.| V c K ' S l = ",
"w L y Y | f.z u 0 , , l x c 7.j.L H W       f L 6 g c u g.Y p 5 ",
"* u A ) L | q O X.z.x ; O + N D , ..) < s 0 T ..c % l g q g i % ",
"5 ( @.) [ K * 6 z | 6.M b S S ) r a i 9.3.W 0 L Z m @.#.5 P 6.> ",
"> Q [ ~ K i l O.Y O E U ( O.| o.s , ] ....k.K , = S 7.| 5 , 6., ",
"O 7 : V x 6 Y o.S o : q i a h V   8 ^ o.a.6.W $ h D B.Z.f 5 i o ",
"z [ i [ O.i K o.Y = x q.M   0 g p , S 2.E . - E [ v <.x.u H M + ",
"m 7.l O.j.g , f <   i S p l L T / ' V 9 2 p 0 { | Z x M   P q., ",
"p Y   T G.L   6 W F &   V 2.o.( ) ' ) g g v.L F ^ o.C X   : =.0 ",
"+ = @ = <.u g | 0.:.C 6 ( h.U L ( [ -.X.w =.m . B [ Y b 9 X f = ",
"# n [ S 0   b | ;.x.[ 0 ' C.o.~ / T ` O.G = # U u V L U o.7.P o ",
"0 ' ] } ..Z w X.^ N b . K 7.~ V p g c v J * > #.N.6 x Y ( o.r., ",
"u *.@...t.Z.e ; 7 C m O i p p > O + 5 l 6 = L 0 Z >   0 @ 6 m = ",
"w u.a.@. . .N , R c.V x R ~ L i     * 5 o O L / w q U ' o.7.#.> ",
"  a l y w 7 = O q q O 7 q 0 i f o + 6 0 *   O q w i i y 0 w i o "
};
