/* XPM */
static char *V0U_[] = {
/* columns rows colors chars-per-pixel */
"32 32 196 2 ",
"   c #010102",
".  c #0A0C03",
"X  c #06050A",
"o  c #09070B",
"O  c #0B0A0D",
"+  c #040C00",
"@  c #100F0F",
"#  c #031000",
"$  c #0C1402",
"%  c #0E100E",
"&  c #12120F",
"*  c #161C0F",
"=  c #141A04",
"-  c #0D0C11",
";  c #110E15",
":  c #130E1A",
">  c #151315",
",  c #181716",
"<  c #161A12",
"1  c #1A1C14",
"2  c #16121B",
"3  c #19151D",
"4  c #1C1B1D",
"5  c #182304",
"6  c #1D2316",
"7  c #1D2219",
"8  c #24320E",
"9  c #22261D",
"0  c #252A1B",
"q  c #282E18",
"w  c #262E17",
"e  c #2E371E",
"r  c #293A14",
"t  c #1B1621",
"y  c #1D1A23",
"u  c #201723",
"i  c #211B26",
"p  c #231D2B",
"a  c #261E31",
"s  c #281F32",
"d  c #242324",
"f  c #262924",
"g  c #292926",
"h  c #26212D",
"j  c #29242D",
"k  c #2B282C",
"l  c #35372F",
"z  c #363B2E",
"x  c #363A29",
"c  c #272133",
"v  c #2B2334",
"b  c #2E2932",
"n  c #2E253A",
"m  c #2F283A",
"M  c #312D34",
"N  c #31263D",
"B  c #322B3C",
"V  c #313132",
"C  c #3B3D34",
"Z  c #36333B",
"A  c #3C3D3A",
"S  c #3B333F",
"D  c #42492E",
"F  c #45473C",
"G  c #352A42",
"H  c #392E45",
"J  c #3A2E49",
"K  c #363141",
"L  c #3A3245",
"P  c #3F3945",
"I  c #3D344B",
"U  c #3F3350",
"Y  c #413B45",
"T  c #41354D",
"R  c #443D4C",
"E  c #433653",
"W  c #453A53",
"Q  c #4A3D55",
"!  c #45365A",
"~  c #463A5A",
"^  c #4B3D5B",
"/  c #4C3E62",
"(  c #513E63",
")  c #444343",
"_  c #484A41",
"`  c #4A484A",
"'  c #52544E",
"]  c #4B4354",
"[  c #4D425C",
"{  c #504A50",
"}  c #50455E",
"|  c #544D5B",
" . c #585755",
".. c #4E4163",
"X. c #524464",
"o. c #564A66",
"O. c #584D64",
"+. c #55456B",
"@. c #55486C",
"#. c #5A4A6C",
"$. c #5D5866",
"%. c #5F5269",
"&. c #5B5365",
"*. c #564672",
"=. c #5A4775",
"-. c #5C4B73",
";. c #5D4B7A",
":. c #5E5171",
">. c #625D65",
",. c #61556E",
"<. c #655C6D",
"1. c #614D74",
"2. c #614E7A",
"3. c #625474",
"4. c #665A73",
"5. c #64537B",
"6. c #68577D",
"7. c #675979",
"8. c #6A5B7D",
"9. c #6D686E",
"0. c #706C6C",
"q. c #6D607D",
"w. c #70637A",
"e. c #634E81",
"r. c #665483",
"t. c #695585",
"y. c #6D5B83",
"u. c #6B568B",
"i. c #6E5A8C",
"p. c #705A87",
"a. c #735D8C",
"s. c #6D5790",
"d. c #6E5B91",
"f. c #745C94",
"g. c #775D98",
"h. c #7A5D9B",
"j. c #6F6086",
"k. c #726384",
"l. c #786C80",
"z. c #74618C",
"x. c #79648D",
"c. c #756889",
"v. c #7A6B8F",
"b. c #766981",
"n. c #7B7284",
"m. c #766194",
"M. c #7A6594",
"N. c #7D6A94",
"B. c #77629A",
"V. c #7B639B",
"C. c #7E699C",
"Z. c #7F7091",
"A. c #7E65A1",
"S. c #826C9C",
"D. c #83649B",
"F. c #887797",
"G. c #887C97",
"H. c #83709D",
"J. c #88719D",
"K. c #867998",
"L. c #8D7C9D",
"P. c #8267A1",
"I. c #846CA3",
"U. c #856BA9",
"Y. c #8A6CAA",
"T. c #8A6EA3",
"R. c #8673A3",
"E. c #8A74A5",
"W. c #8E7BA2",
"Q. c #8B73AA",
"!. c #8E7AAA",
"~. c #8473A9",
"^. c #9176AE",
"/. c #917BAD",
"(. c #8E6FB2",
"). c #8F7AB1",
"_. c #9574B6",
"`. c #947BB4",
"'. c #987FB4",
"]. c #9876B9",
"[. c #91809C",
"{. c #9A83B5",
"}. c #9B82BB",
"|. c #9F89BF",
" X c #9D8AB1",
".X c #9889AA",
"XX c #A187BE",
"oX c #9F85C0",
"OX c #9D89C2",
"+X c #A38CC4",
"@X c #A589C7",
"#X c #AA92CA",
"$X c #AE9AC6",
"%X c #AF97D0",
"&X c #BCA2DE",
"*X c #C4AAE5",
/* pixels */
"  X ; X h X     ; 3 3 X O p K H 3 y y - - . M a 3 $ . t p y 2 O ",
"  y.E H $X2   J Y R %.[ I W y.G.0 G G ^ t.q n.A.6.q.H -.t.;.[ y ",
"B #X~ X.'.L / u.@.k.Q.z.N.S.E > 7.M.I ~ +Xz k.(.f.D.Q 3 u p y 2 ",
"G S.g N X.n f.u.;.g.P.I.`.}.z.  /.%X#.i [ 1 w._.Y.x.-.    K m   ",
"p g 9 W 2 X #.`.I.Q.V.t.y.E.X.3 J.!.`.5.O i @XT.v.]./.; 7./.H   ",
"< 6 ,.3.n   Y <.S.z.5.J , Z X y k.y._.I.t A R.`.w..X0.h C.z.t   ",
"+ g S.M.G ; 8 D &.Y Q v A 4.X.t b z.Q.{.m.! n ^ k.| z . z.}.H   ",
"  H f.f.1.H t = e i 2 8.U.V.C.{.l y [ M.).I.^ 2 B 2 t   y Q 9 # ",
"  N f.2.;.m.@.  P i.] z Z._.M.L. .& p P o.3.J Q F.a   O.L   d > ",
"p N X.m.f.|.M.> $.`.I.P $ W.{.8.p I -.} +.n X.{.6.,.* 3.,.  O ; ",
", p 2 T p.5.N / / !.+XL X b m ; Q j.C.;.s.t.p XXV.X.3 > 3 3 v   ",
"> O   : +.{ 9 -./ [ w.X k.[   @.C.V.V.f.g.o.2 Q 1.o y.+Xr.X.M.; ",
"J [ Z z.R. X{ J u.U y i [ X.  6.T.;.5.z.2.z = X 6 + ] 5.[ J f.2 ",
"J 3.` a.I.x.J.n X.r.h.h.t.X.m v Q c n T l w v a.K.9.[     P I   ",
"H 8.W Q.Q.'.{.3 m E r.f.d.A.{.~ ( M.M 2 p -.`.}.`.A.y.y   , O   ",
"v S.y ) z 1 b 4 X.o E t.i.V.B.! z.Q./.W ' #X`.R.I.y.y.v ^ v.] X ",
"v z.3 - E : O S h B ( e.i.t.^ 3 n S.&XE.C {.+XI.v.j.T ~ h.2.p X ",
"v 4.b +.OXz.T E.h c +.t.r.J 5.~.R O I X.; y 3.Q.M.W W +.a.( L ; ",
"b +.v 2.m.).T b h 4 4 T I W !.`.o.| 4.      B #.i L E n `.5.G t ",
"; N [ i.*.M.c X M.'.I 1 . - ` o.4 S.y.7 l p 5.g.U - H G s K B - ",
"t j.H.u.g.+.; i L x.Q.] ) o...i.x M B /.L.<.p 1.[ Q R.C.i &.R.3 ",
"3 4.z.t.+.n L C.5.. 4.*.u.C.M.B.C 4 a.D.M.{.+.3 > ..Q.m.u 4 W.t ",
"O i 2 ^ U y 5.V.X.  2 a m V F ~   0 p.V._.W.4.5 A X.+X#XN i B X ",
"I z.n m.S.B +.V.4.> I !.^   y J N 4 o.R.>.$ 1 >.d.! E.{.b o.Q O ",
"W ~.J S.`.J t B 0   N o.B J #.5.t.a.[ k 0 m h B.B.] I ~   &./.t ",
"G -.  5.*XO.  y 4.' -   ~ R.V.t.u.u.a.S K }.#.| b.C.[ $   4 I.p ",
"O < * 2 T.B Z N._.F.] p p.'.=.*.u.g.~.v.b J.W # ' d.;._ f $ Z ; ",
"& F k...i   ) V.U.'.x.p a.+XB.t.y.5.c.C.| > ; -.b ~ *.=.M.E.1.X ",
"a f.k.M.D...k N.w.] ` X *.R.r.^ N H E ~ O.- 3 S.OXi L :.k.S.^.t ",
"s U.I.D._.$Xr 1 9 [ Q X n G M t X - t H i 2 @.a o.t   d & y W : ",
"v `.`.S.M.n.{ 4 5.}.^ E 5.6.#.B     ; u   o =.r.c c ;.d.B.Q.I.2 ",
"  M L v b d ; O v h X d c h B G   O i h >   X v v v n v c v n X "
};
